<?xml version="1.0" encoding="UTF-8"?>
<svg xmlns="http://www.w3.org/2000/svg" viewBox="0 0 1040 1000" width="1040" height="1000">
  <defs>
    <marker id="a" markerWidth="8" markerHeight="6" refX="8" refY="3" orient="auto"><path d="M0,0 L8,3 L0,6Z" fill="#64748b"/></marker>
    <marker id="ar" markerWidth="8" markerHeight="6" refX="8" refY="3" orient="auto"><path d="M0,0 L8,3 L0,6Z" fill="#ef4444"/></marker>
    <filter id="s" x="-5%" y="-5%" width="110%" height="110%"><feDropShadow dx="1" dy="1" stdDeviation="2" flood-opacity="0.3"/></filter>
  </defs>
  <style>
    .bg{fill:#0d1117}.lb{fill:#161b22;opacity:0.4}.ll{stroke:#30363d;stroke-width:1}
    .lh{font:bold 13px 'Segoe UI',Arial,sans-serif;fill:#e2e8f0}.tl{font:bold 18px 'Segoe UI',Arial,sans-serif;fill:#e2e8f0}
    .ax{font:11px 'Segoe UI',Arial,sans-serif;fill:#e2e8f0}.dx{font:11px 'Segoe UI',Arial,sans-serif;fill:#e2e8f0}
    .dy{font:bold 11px 'Segoe UI',Arial,sans-serif;fill:#22c55e}.dn{font:bold 11px 'Segoe UI',Arial,sans-serif;fill:#ef4444}
    .r1{fill:#1e293b;stroke:#334155;stroke-width:1}.r2{fill:#1e293b;stroke:#22c55e;stroke-width:1}
    .r3{fill:#1e293b;stroke:#a855f7;stroke-width:1}.r4{fill:#1e293b;stroke:#ef4444;stroke-width:1}
    .fl{stroke:#64748b;stroke-width:1.5}.fy{stroke:#22c55e;stroke-width:1.5}.fn{stroke:#ef4444;stroke-width:1.5}
  </style>
  <rect class="bg" width="1040" height="1000"/>
  <rect x="0" y="50" width="260" height="950" class="lb"/><rect x="520" y="50" width="260" height="950" class="lb"/>
  <line x1="260" y1="50" x2="260" y2="1000" class="ll"/><line x1="520" y1="50" x2="520" y2="1000" class="ll"/><line x1="780" y1="50" x2="780" y2="1000" class="ll"/>
  <rect x="2" y="52" width="256" height="32" fill="#1e3a5f" rx="4"/><text x="130" y="74" class="lh" text-anchor="middle">User (Admin)</text>
  <rect x="262" y="52" width="256" height="32" fill="#14532d" rx="4"/><text x="390" y="74" class="lh" text-anchor="middle">Aplikasi</text>
  <rect x="522" y="52" width="256" height="32" fill="#713f12" rx="4"/><text x="650" y="74" class="lh" text-anchor="middle">Sistem</text>
  <rect x="782" y="52" width="256" height="32" fill="#581c87" rx="4"/><text x="910" y="74" class="lh" text-anchor="middle">Database</text>
  <text x="520" y="34" class="tl" text-anchor="middle">ACTIVITY DIAGRAM — EDIT / HAPUS TRANSAKSI</text>

  <circle cx="130" cy="105" r="9" fill="#e2e8f0"/>
  <line x1="130" y1="114" x2="130" y2="126" class="fl" marker-end="url(#a)"/>
  <rect x="40" y="126" width="180" height="26" rx="5" class="r1" filter="url(#s)"/>
  <text x="130" y="143" class="ax" text-anchor="middle">Pilih transaksi</text>
  <line x1="130" y1="152" x2="130" y2="168" class="fl"/><line x1="130" y2="168" x2="390" y2="168" class="fl" marker-end="url(#a)"/>
  <rect x="275" y="168" width="230" height="26" rx="5" class="r1" filter="url(#s)"/>
  <text x="390" y="185" class="ax" text-anchor="middle">Tampilkan detail transaksi</text>
  <line x1="390" y1="194" x2="390" y2="210" class="fl"/><line x1="390" y2="210" x2="130" y2="210" class="fl" marker-end="url(#a)"/>
  <rect x="40" y="210" width="180" height="26" rx="5" class="r1" filter="url(#s)"/>
  <text x="130" y="227" class="ax" text-anchor="middle">Pilih Edit atau Hapus</text>
  <line x1="130" y1="236" x2="130" y2="254" class="fl" marker-end="url(#a)"/>
  <polygon points="130,254 195,284 130,314 65,284" fill="#1e293b" stroke="#f59e0b" stroke-width="2" filter="url(#s)"/>
  <text x="130" y="280" class="dx" text-anchor="middle">Pilihan?</text>

  <!-- === EDIT BRANCH === -->
  <line x1="65" y1="284" x2="20" y2="284" class="fl"/><text x="45" y="279" class="dy">Edit</text>
  <line x1="20" y1="284" x2="20" y2="310" class="fl"/><line x1="20" y2="310" x2="130" y2="310" class="fl" marker-end="url(#a)"/>
  <rect x="40" y="310" width="180" height="26" rx="5" class="r1" filter="url(#s)"/>
  <text x="130" y="327" class="ax" text-anchor="middle">Edit data transaksi</text>
  <line x1="130" y1="336" x2="130" y2="352" class="fl"/><line x1="130" y2="352" x2="390" y2="352" class="fl" marker-end="url(#a)"/>
  <rect x="275" y="352" width="230" height="26" rx="5" class="r1" filter="url(#s)"/>
  <text x="390" y="369" class="ax" text-anchor="middle">Tampilkan form edit</text>
  <line x1="390" y1="378" x2="390" y2="394" class="fl"/><line x1="390" y2="394" x2="130" y2="394" class="fl" marker-end="url(#a)"/>
  <rect x="40" y="394" width="180" height="26" rx="5" class="r1" filter="url(#s)"/>
  <text x="130" y="411" class="ax" text-anchor="middle">Input data baru</text>
  <line x1="130" y1="420" x2="130" y2="436" class="fl" marker-end="url(#a)"/>
  <rect x="45" y="436" width="170" height="26" rx="5" class="r1" filter="url(#s)"/>
  <text x="130" y="453" class="ax" text-anchor="middle">Klik tombol update</text>
  <line x1="130" y1="462" x2="130" y2="478" class="fl"/><line x1="130" y2="478" x2="650" y2="478" class="fl" marker-end="url(#a)"/>
  <rect x="545" y="478" width="210" height="26" rx="5" class="r1" filter="url(#s)"/>
  <text x="650" y="495" class="ax" text-anchor="middle">Validasi form edit</text>
  <line x1="650" y1="504" x2="650" y2="522" class="fl" marker-end="url(#a)"/>
  <polygon points="650,522 710,552 650,582 590,552" fill="#1e293b" stroke="#f59e0b" stroke-width="2" filter="url(#s)"/>
  <text x="650" y="548" class="dx" text-anchor="middle">Valid?</text>
  <line x1="710" y1="552" x2="770" y2="552" class="fn"/><text x="743" y="547" class="dn">Tidak</text>
  <line x1="770" y1="552" x2="770" y2="365" class="fn"/><line x1="770" y2="365" x2="505" y2="365" class="fn"/>
  <rect x="505" y="352" width="210" height="26" rx="5" class="r4" filter="url(#s)"/>
  <text x="610" y="369" class="ax" text-anchor="middle">Tampilkan pesan error</text>
  <line x1="505" y1="365" x2="390" y2="365" class="fn" marker-end="url(#ar)"/>
  <line x1="650" y1="582" x2="650" y2="598" class="fy" marker-end="url(#a)"/><text x="668" y="593" class="dy">Ya</text>
  <rect x="545" y="598" width="210" height="26" rx="5" class="r1" filter="url(#s)"/>
  <text x="650" y="615" class="ax" text-anchor="middle">Rollback stok lama</text>
  <line x1="650" y1="624" x2="650" y2="638" class="fl"/><line x1="650" y2="638" x2="910" y2="638" class="fl" marker-end="url(#a)"/>
  <rect x="805" y="638" width="210" height="26" rx="5" class="r3" filter="url(#s)"/>
  <text x="910" y="655" class="ax" text-anchor="middle">Update stok (kembalikan)</text>
  <line x1="910" y1="664" x2="910" y2="678" class="fl"/><line x1="910" y2="678" x2="650" y2="678" class="fl" marker-end="url(#a)"/>
  <rect x="545" y="678" width="210" height="26" rx="5" class="r1" filter="url(#s)"/>
  <text x="650" y="695" class="ax" text-anchor="middle">Hapus detail lama</text>
  <line x1="650" y1="704" x2="650" y2="718" class="fl"/><line x1="650" y2="718" x2="910" y2="718" class="fl" marker-end="url(#a)"/>
  <rect x="805" y="718" width="210" height="26" rx="5" class="r3" filter="url(#s)"/>
  <text x="910" y="735" class="ax" text-anchor="middle">Hapus detail lama</text>
  <line x1="910" y1="744" x2="910" y2="758" class="fl"/><line x1="910" y2="758" x2="650" y2="758" class="fl" marker-end="url(#a)"/>
  <rect x="545" y="758" width="210" height="26" rx="5" class="r1" filter="url(#s)"/>
  <text x="650" y="775" class="ax" text-anchor="middle">Simpan data baru</text>
  <line x1="650" y1="784" x2="650" y2="798" class="fl"/><line x1="650" y2="798" x2="910" y2="798" class="fl" marker-end="url(#a)"/>
  <rect x="805" y="798" width="210" height="26" rx="5" class="r3" filter="url(#s)"/>
  <text x="910" y="815" class="ax" text-anchor="middle">Simpan header &amp; detail baru</text>
  <line x1="910" y1="824" x2="910" y2="838" class="fl"/><line x1="910" y2="838" x2="650" y2="838" class="fl" marker-end="url(#a)"/>
  <rect x="545" y="838" width="210" height="26" rx="5" class="r1" filter="url(#s)"/>
  <text x="650" y="855" class="ax" text-anchor="middle">Update stok baru</text>
  <line x1="650" y1="864" x2="650" y2="878" class="fl"/><line x1="650" y2="878" x2="910" y2="878" class="fl" marker-end="url(#a)"/>
  <rect x="805" y="878" width="210" height="26" rx="5" class="r3" filter="url(#s)"/>
  <text x="910" y="895" class="ax" text-anchor="middle">Update stok sparepart</text>

  <!-- === HAPUS BRANCH === -->
  <line x1="195" y1="284" x2="240" y2="284" class="fl"/><text x="218" y="279" class="dn">Hapus</text>
  <line x1="240" y1="284" x2="240" y2="310" class="fl"/><line x1="240" y2="310" x2="390" y2="310" class="fl" marker-end="url(#a)"/>
  <rect x="275" y="310" width="230" height="26" rx="5" class="r1" filter="url(#s)"/>
  <text x="390" y="327" class="ax" text-anchor="middle">Tampilkan konfirmasi hapus</text>
  <line x1="390" y1="336" x2="390" y2="352" class="fl"/><line x1="390" y2="352" x2="130" y2="352" class="fl" marker-end="url(#a)"/>
  <polygon points="130,352 190,382 130,412 70,382" fill="#1e293b" stroke="#f59e0b" stroke-width="2" filter="url(#s)"/>
  <text x="130" y="378" class="dx" text-anchor="middle">Yakin?</text>
  <line x1="70" y1="382" x2="20" y2="382" class="fn"/><text x="47" y="377" class="dn">Tidak</text>
  <line x1="20" y1="382" x2="20" y2="230" class="fn"/><line x1="20" y2="230" x2="100" y2="230" class="fn" marker-end="url(#ar)"/>
  <line x1="190" y1="382" x2="240" y2="382" class="fy"/><text x="215" y="377" class="dy">Ya</text>
  <line x1="240" y1="382" x2="240" y2="420" class="fl"/><line x1="240" y2="420" x2="650" y2="420" class="fl" marker-end="url(#a)"/>
  <rect x="545" y="420" width="210" height="26" rx="5" class="r1" filter="url(#s)"/>
  <text x="650" y="437" class="ax" text-anchor="middle">Rollback stok (kembalikan qty)</text>
  <line x1="650" y1="446" x2="650" y2="460" class="fl"/><line x1="650" y2="460" x2="910" y2="460" class="fl" marker-end="url(#a)"/>
  <rect x="805" y="460" width="210" height="26" rx="5" class="r3" filter="url(#s)"/>
  <text x="910" y="477" class="ax" text-anchor="middle">Update stok (restore)</text>
  <line x1="910" y1="486" x2="910" y2="500" class="fl"/><line x1="910" y2="500" x2="650" y2="500" class="fl" marker-end="url(#a)"/>
  <rect x="545" y="500" width="210" height="26" rx="5" class="r1" filter="url(#s)"/>
  <text x="650" y="517" class="ax" text-anchor="middle">Hapus detail transaksi</text>
  <line x1="650" y1="526" x2="650" y2="540" class="fl"/><line x1="650" y2="540" x2="910" y2="540" class="fl" marker-end="url(#a)"/>
  <rect x="805" y="540" width="210" height="26" rx="5" class="r3" filter="url(#s)"/>
  <text x="910" y="557" class="ax" text-anchor="middle">Hapus detail transaksi</text>
  <line x1="910" y1="566" x2="910" y2="580" class="fl"/><line x1="910" y2="580" x2="650" y2="580" class="fl" marker-end="url(#a)"/>
  <rect x="545" y="580" width="210" height="26" rx="5" class="r1" filter="url(#s)"/>
  <text x="650" y="597" class="ax" text-anchor="middle">Hapus header transaksi</text>
  <line x1="650" y1="606" x2="650" y2="620" class="fl"/><line x1="650" y2="620" x2="910" y2="620" class="fl" marker-end="url(#a)"/>
  <rect x="805" y="620" width="210" height="26" rx="5" class="r3" filter="url(#s)"/>
  <text x="910" y="637" class="ax" text-anchor="middle">Hapus header transaksi</text>

  <!-- Merge both branches to success -->
  <line x1="910" y1="895" x2="910" y2="920" class="fl"/><line x1="910" y2="920" x2="390" y2="920" class="fl" marker-end="url(#a)"/>
  <rect x="275" y="920" width="230" height="26" rx="5" class="r2" filter="url(#s)"/>
  <text x="390" y="937" class="ax" text-anchor="middle">Tampilkan pesan sukses</text>
  <line x1="390" y1="946" x2="390" y2="962" class="fl"/><line x1="390" y2="962" x2="130" y2="962" class="fl" marker-end="url(#a)"/>
  <circle cx="130" cy="962" r="9" fill="none" stroke="#e2e8f0" stroke-width="3"/>
</svg>
