<?xml version="1.0" encoding="UTF-8"?>
<svg xmlns="http://www.w3.org/2000/svg" viewBox="0 0 1040 800" width="1040" height="800">
  <defs>
    <marker id="a" markerWidth="8" markerHeight="6" refX="8" refY="3" orient="auto"><path d="M0,0 L8,3 L0,6Z" fill="#64748b"/></marker>
    <marker id="ar" markerWidth="8" markerHeight="6" refX="8" refY="3" orient="auto"><path d="M0,0 L8,3 L0,6Z" fill="#ef4444"/></marker>
    <filter id="s" x="-5%" y="-5%" width="110%" height="110%"><feDropShadow dx="1" dy="1" stdDeviation="2" flood-opacity="0.3"/></filter>
  </defs>
  <style>
    .bg{fill:#0d1117}.lb{fill:#161b22;opacity:0.4}.ll{stroke:#30363d;stroke-width:1}
    .lh{font:bold 13px 'Segoe UI',Arial,sans-serif;fill:#e2e8f0}.tl{font:bold 18px 'Segoe UI',Arial,sans-serif;fill:#e2e8f0}
    .ax{font:11px 'Segoe UI',Arial,sans-serif;fill:#e2e8f0}.dx{font:11px 'Segoe UI',Arial,sans-serif;fill:#e2e8f0}
    .dy{font:bold 11px 'Segoe UI',Arial,sans-serif;fill:#22c55e}.dn{font:bold 11px 'Segoe UI',Arial,sans-serif;fill:#ef4444}
    .r1{fill:#1e293b;stroke:#334155;stroke-width:1}.r2{fill:#1e293b;stroke:#22c55e;stroke-width:1}
    .r3{fill:#1e293b;stroke:#a855f7;stroke-width:1}.r4{fill:#1e293b;stroke:#ef4444;stroke-width:1}
    .fl{stroke:#64748b;stroke-width:1.5}.fy{stroke:#22c55e;stroke-width:1.5}.fn{stroke:#ef4444;stroke-width:1.5}
  </style>
  <rect class="bg" width="1040" height="800"/>
  <rect x="0" y="50" width="260" height="750" class="lb"/><rect x="520" y="50" width="260" height="750" class="lb"/>
  <line x1="260" y1="50" x2="260" y2="800" class="ll"/><line x1="520" y1="50" x2="520" y2="800" class="ll"/><line x1="780" y1="50" x2="780" y2="800" class="ll"/>
  <rect x="2" y="52" width="256" height="32" fill="#1e3a5f" rx="4"/><text x="130" y="74" class="lh" text-anchor="middle">User</text>
  <rect x="262" y="52" width="256" height="32" fill="#14532d" rx="4"/><text x="390" y="74" class="lh" text-anchor="middle">Aplikasi</text>
  <rect x="522" y="52" width="256" height="32" fill="#713f12" rx="4"/><text x="650" y="74" class="lh" text-anchor="middle">Sistem</text>
  <rect x="782" y="52" width="256" height="32" fill="#581c87" rx="4"/><text x="910" y="74" class="lh" text-anchor="middle">Database</text>
  <text x="520" y="34" class="tl" text-anchor="middle">ACTIVITY DIAGRAM — LOGIN</text>

  <circle cx="130" cy="105" r="9" fill="#e2e8f0"/>
  <line x1="130" y1="114" x2="130" y2="126" class="fl" marker-end="url(#a)"/>
  <rect x="45" y="126" width="170" height="26" rx="5" class="r1" filter="url(#s)"/>
  <text x="130" y="143" class="ax" text-anchor="middle">Buka halaman login</text>
  <line x1="130" y1="152" x2="130" y2="168" class="fl"/><line x1="130" y1="168" x2="390" y2="168" class="fl" marker-end="url(#a)"/>
  <rect x="275" y="168" width="230" height="26" rx="5" class="r1" filter="url(#s)"/>
  <text x="390" y="185" class="ax" text-anchor="middle">Tampilkan form login</text>
  <line x1="390" y1="194" x2="390" y2="210" class="fl"/><line x1="390" y2="210" x2="130" y2="210" class="fl" marker-end="url(#a)"/>
  <rect x="30" y="210" width="200" height="26" rx="5" class="r1" filter="url(#s)"/>
  <text x="130" y="227" class="ax" text-anchor="middle">Input email dan password</text>
  <line x1="130" y1="236" x2="130" y2="252" class="fl" marker-end="url(#a)"/>
  <rect x="45" y="252" width="170" height="26" rx="5" class="r1" filter="url(#s)"/>
  <text x="130" y="269" class="ax" text-anchor="middle">Klik tombol login</text>
  <line x1="130" y1="278" x2="130" y2="294" class="fl"/><line x1="130" y2="294" x2="650" y2="294" class="fl" marker-end="url(#a)"/>
  <rect x="545" y="294" width="210" height="26" rx="5" class="r1" filter="url(#s)"/>
  <text x="650" y="311" class="ax" text-anchor="middle">Validasi input</text>
  <line x1="650" y1="320" x2="650" y2="338" class="fl" marker-end="url(#a)"/>
  <polygon points="650,338 710,368 650,398 590,368" fill="#1e293b" stroke="#f59e0b" stroke-width="2" filter="url(#s)"/>
  <text x="650" y="364" class="dx" text-anchor="middle">Data valid?</text>
  <line x1="710" y1="368" x2="770" y2="368" class="fn"/><text x="743" y="363" class="dn">Tidak</text>
  <line x1="770" y1="368" x2="770" y2="181" class="fn"/><line x1="770" y1="181" x2="505" y2="181" class="fn"/>
  <rect x="505" y="168" width="210" height="26" rx="5" class="r4" filter="url(#s)"/>
  <text x="610" y="185" class="ax" text-anchor="middle">Tampilkan pesan error</text>
  <line x1="505" y1="181" x2="390" y2="181" class="fn" marker-end="url(#ar)"/>
  <line x1="650" y1="398" x2="650" y2="416" class="fy" marker-end="url(#a)"/><text x="668" y="411" class="dy">Ya</text>
  <rect x="545" y="416" width="210" height="26" rx="5" class="r1" filter="url(#s)"/>
  <text x="650" y="433" class="ax" text-anchor="middle">Query ke database</text>
  <line x1="650" y1="442" x2="650" y2="456" class="fl"/><line x1="650" y2="456" x2="910" y2="456" class="fl" marker-end="url(#a)"/>
  <rect x="805" y="456" width="210" height="26" rx="5" class="r3" filter="url(#s)"/>
  <text x="910" y="473" class="ax" text-anchor="middle">Cek kredensial user</text>
  <line x1="910" y1="482" x2="910" y2="496" class="fl"/><line x1="910" y2="496" x2="650" y2="496" class="fl" marker-end="url(#a)"/>
  <rect x="545" y="496" width="210" height="26" rx="5" class="r1" filter="url(#s)"/>
  <text x="650" y="513" class="ax" text-anchor="middle">Cek role pengguna</text>
  <line x1="650" y1="522" x2="650" y2="540" class="fl" marker-end="url(#a)"/>
  <polygon points="650,540 710,570 650,600 590,570" fill="#1e293b" stroke="#f59e0b" stroke-width="2" filter="url(#s)"/>
  <text x="650" y="566" class="dx" text-anchor="middle">Role?</text>
  <line x1="590" y1="570" x2="520" y2="570" class="fl"/><text x="557" y="565" class="dy">Admin</text>
  <line x1="520" y1="570" x2="520" y2="600" class="fl"/><line x1="520" y2="600" x2="390" y2="600" class="fl" marker-end="url(#a)"/>
  <rect x="275" y="600" width="230" height="26" rx="5" class="r2" filter="url(#s)"/>
  <text x="390" y="617" class="ax" text-anchor="middle">Redirect ke dashboard admin</text>
  <line x1="710" y1="570" x2="770" y2="570" class="fl"/><text x="743" y="565" class="dy">Pimpinan</text>
  <line x1="770" y1="570" x2="770" y2="648" class="fl"/><line x1="770" y2="648" x2="390" y2="648" class="fl" marker-end="url(#a)"/>
  <rect x="275" y="648" width="230" height="26" rx="5" class="r2" filter="url(#s)"/>
  <text x="390" y="665" class="ax" text-anchor="middle">Redirect ke dashboard pimpinan</text>
  <line x1="390" y1="626" x2="390" y2="642" class="fl"/><line x1="390" y2="642" x2="390" y2="648" class="fl"/>
  <line x1="390" y1="674" x2="390" y2="690" class="fl"/><line x1="390" y2="690" x2="130" y2="690" class="fl" marker-end="url(#a)"/>
  <circle cx="130" cy="690" r="9" fill="none" stroke="#e2e8f0" stroke-width="3"/>
</svg>
